<mxfile host="app.diagrams.net" agent="Mozilla/5.0 (Windows NT 10.0; Win64; x64) AppleWebKit/537.36 (KHTML, like Gecko) Chrome/130.0.0.0 Safari/537.36" version="24.8.4">
  <diagram id="C5RBs43oDa-KdzZeNtuy" name="Page-1">
    <mxGraphModel dx="1235" dy="614" grid="1" gridSize="10" guides="1" tooltips="1" connect="1" arrows="1" fold="1" page="1" pageScale="1" pageWidth="827" pageHeight="1169" math="0" shadow="0">
      <root>
        <mxCell id="WIyWlLk6GJQsqaUBKTNV-0" />
        <mxCell id="WIyWlLk6GJQsqaUBKTNV-1" parent="WIyWlLk6GJQsqaUBKTNV-0" />
        <mxCell id="beK7n8UiSImI9W9QiJgS-0" style="edgeStyle=none;rounded=0;orthogonalLoop=1;jettySize=auto;html=1;exitX=0.5;exitY=1;exitDx=0;exitDy=0;entryX=0.5;entryY=0;entryDx=0;entryDy=0;fontSize=18;" edge="1" parent="WIyWlLk6GJQsqaUBKTNV-1" source="beK7n8UiSImI9W9QiJgS-1" target="beK7n8UiSImI9W9QiJgS-3">
          <mxGeometry relative="1" as="geometry" />
        </mxCell>
        <mxCell id="beK7n8UiSImI9W9QiJgS-1" value="" style="ellipse;whiteSpace=wrap;html=1;fontSize=18;fillColor=#000000;" vertex="1" parent="WIyWlLk6GJQsqaUBKTNV-1">
          <mxGeometry x="435" y="100" width="30" height="30" as="geometry" />
        </mxCell>
        <mxCell id="beK7n8UiSImI9W9QiJgS-2" style="edgeStyle=none;rounded=0;orthogonalLoop=1;jettySize=auto;html=1;exitX=0.5;exitY=1;exitDx=0;exitDy=0;entryX=0.5;entryY=0;entryDx=0;entryDy=0;fontSize=18;" edge="1" parent="WIyWlLk6GJQsqaUBKTNV-1" source="beK7n8UiSImI9W9QiJgS-3" target="beK7n8UiSImI9W9QiJgS-10">
          <mxGeometry relative="1" as="geometry" />
        </mxCell>
        <mxCell id="beK7n8UiSImI9W9QiJgS-3" value="Выбирает метод входа" style="rounded=0;whiteSpace=wrap;html=1;fontSize=18;" vertex="1" parent="WIyWlLk6GJQsqaUBKTNV-1">
          <mxGeometry x="372.5" y="160" width="155" height="60" as="geometry" />
        </mxCell>
        <mxCell id="beK7n8UiSImI9W9QiJgS-4" style="edgeStyle=none;rounded=0;orthogonalLoop=1;jettySize=auto;html=1;exitX=0.5;exitY=1;exitDx=0;exitDy=0;entryX=0.5;entryY=0;entryDx=0;entryDy=0;fontSize=18;" edge="1" parent="WIyWlLk6GJQsqaUBKTNV-1" source="beK7n8UiSImI9W9QiJgS-5" target="beK7n8UiSImI9W9QiJgS-15">
          <mxGeometry relative="1" as="geometry" />
        </mxCell>
        <mxCell id="beK7n8UiSImI9W9QiJgS-5" value="Вводит емаил и пароль" style="rounded=0;whiteSpace=wrap;html=1;fontSize=18;" vertex="1" parent="WIyWlLk6GJQsqaUBKTNV-1">
          <mxGeometry x="160" y="270" width="140" height="50" as="geometry" />
        </mxCell>
        <mxCell id="beK7n8UiSImI9W9QiJgS-6" style="edgeStyle=none;rounded=0;orthogonalLoop=1;jettySize=auto;html=1;exitX=0.5;exitY=1;exitDx=0;exitDy=0;entryX=0.5;entryY=0;entryDx=0;entryDy=0;fontSize=18;" edge="1" parent="WIyWlLk6GJQsqaUBKTNV-1" source="beK7n8UiSImI9W9QiJgS-7" target="beK7n8UiSImI9W9QiJgS-25">
          <mxGeometry relative="1" as="geometry">
            <mxPoint x="640" y="304" as="targetPoint" />
          </mxGeometry>
        </mxCell>
        <mxCell id="beK7n8UiSImI9W9QiJgS-7" value="Входит через Google" style="rounded=0;whiteSpace=wrap;html=1;fontSize=18;" vertex="1" parent="WIyWlLk6GJQsqaUBKTNV-1">
          <mxGeometry x="575" y="270" width="130" height="50" as="geometry" />
        </mxCell>
        <mxCell id="beK7n8UiSImI9W9QiJgS-9" style="edgeStyle=none;rounded=0;orthogonalLoop=1;jettySize=auto;html=1;exitX=1;exitY=0.5;exitDx=0;exitDy=0;entryX=0;entryY=0.5;entryDx=0;entryDy=0;fontSize=18;" edge="1" parent="WIyWlLk6GJQsqaUBKTNV-1" source="beK7n8UiSImI9W9QiJgS-10" target="beK7n8UiSImI9W9QiJgS-7">
          <mxGeometry relative="1" as="geometry" />
        </mxCell>
        <mxCell id="beK7n8UiSImI9W9QiJgS-21" style="edgeStyle=orthogonalEdgeStyle;rounded=0;orthogonalLoop=1;jettySize=auto;html=1;entryX=1;entryY=0.5;entryDx=0;entryDy=0;" edge="1" parent="WIyWlLk6GJQsqaUBKTNV-1" source="beK7n8UiSImI9W9QiJgS-10" target="beK7n8UiSImI9W9QiJgS-5">
          <mxGeometry relative="1" as="geometry" />
        </mxCell>
        <mxCell id="beK7n8UiSImI9W9QiJgS-10" value="Выбирает" style="rhombus;whiteSpace=wrap;html=1;fontSize=18;" vertex="1" parent="WIyWlLk6GJQsqaUBKTNV-1">
          <mxGeometry x="397.5" y="250" width="105" height="90" as="geometry" />
        </mxCell>
        <mxCell id="beK7n8UiSImI9W9QiJgS-11" value="Нет" style="edgeStyle=none;rounded=0;orthogonalLoop=1;jettySize=auto;html=1;exitX=1;exitY=0.5;exitDx=0;exitDy=0;entryX=1;entryY=0.5;entryDx=0;entryDy=0;fontSize=18;" edge="1" parent="WIyWlLk6GJQsqaUBKTNV-1" source="beK7n8UiSImI9W9QiJgS-25" target="beK7n8UiSImI9W9QiJgS-3">
          <mxGeometry x="-0.625" relative="1" as="geometry">
            <Array as="points">
              <mxPoint x="730" y="397" />
              <mxPoint x="730" y="190" />
            </Array>
            <mxPoint as="offset" />
            <mxPoint x="680" y="340" as="sourcePoint" />
          </mxGeometry>
        </mxCell>
        <mxCell id="beK7n8UiSImI9W9QiJgS-12" value="Да" style="edgeStyle=none;rounded=0;orthogonalLoop=1;jettySize=auto;html=1;exitX=0;exitY=0.5;exitDx=0;exitDy=0;entryX=0.5;entryY=0;entryDx=0;entryDy=0;fontSize=18;" edge="1" parent="WIyWlLk6GJQsqaUBKTNV-1" source="beK7n8UiSImI9W9QiJgS-25" target="beK7n8UiSImI9W9QiJgS-18">
          <mxGeometry x="-0.6226" y="2" relative="1" as="geometry">
            <Array as="points">
              <mxPoint x="450" y="397" />
            </Array>
            <mxPoint as="offset" />
            <mxPoint x="600" y="340" as="sourcePoint" />
          </mxGeometry>
        </mxCell>
        <mxCell id="beK7n8UiSImI9W9QiJgS-14" value="&lt;div&gt;Да&lt;/div&gt;" style="edgeStyle=orthogonalEdgeStyle;rounded=0;orthogonalLoop=1;jettySize=auto;html=1;exitX=1;exitY=0.5;exitDx=0;exitDy=0;entryX=0.5;entryY=0;entryDx=0;entryDy=0;fontSize=18;" edge="1" parent="WIyWlLk6GJQsqaUBKTNV-1" source="beK7n8UiSImI9W9QiJgS-15" target="beK7n8UiSImI9W9QiJgS-18">
          <mxGeometry x="-0.6226" relative="1" as="geometry">
            <mxPoint as="offset" />
            <Array as="points">
              <mxPoint x="450" y="397" />
            </Array>
          </mxGeometry>
        </mxCell>
        <mxCell id="beK7n8UiSImI9W9QiJgS-15" value="Верные данные" style="rhombus;whiteSpace=wrap;html=1;fontSize=18;" vertex="1" parent="WIyWlLk6GJQsqaUBKTNV-1">
          <mxGeometry x="170" y="354" width="120" height="86" as="geometry" />
        </mxCell>
        <mxCell id="beK7n8UiSImI9W9QiJgS-16" value="Нет" style="edgeStyle=none;rounded=0;orthogonalLoop=1;jettySize=auto;html=1;exitX=0;exitY=0.5;exitDx=0;exitDy=0;fontSize=18;" edge="1" parent="WIyWlLk6GJQsqaUBKTNV-1" source="beK7n8UiSImI9W9QiJgS-15">
          <mxGeometry x="-0.625" relative="1" as="geometry">
            <mxPoint x="190" y="398.5" as="sourcePoint" />
            <mxPoint x="370" y="192" as="targetPoint" />
            <Array as="points">
              <mxPoint x="130" y="397" />
              <mxPoint x="130" y="191.5" />
            </Array>
            <mxPoint as="offset" />
          </mxGeometry>
        </mxCell>
        <mxCell id="beK7n8UiSImI9W9QiJgS-17" style="edgeStyle=none;rounded=0;orthogonalLoop=1;jettySize=auto;html=1;exitX=0.5;exitY=1;exitDx=0;exitDy=0;entryX=0.5;entryY=0;entryDx=0;entryDy=0;fontSize=18;" edge="1" parent="WIyWlLk6GJQsqaUBKTNV-1" source="beK7n8UiSImI9W9QiJgS-18">
          <mxGeometry relative="1" as="geometry">
            <mxPoint x="450" y="540" as="targetPoint" />
          </mxGeometry>
        </mxCell>
        <mxCell id="beK7n8UiSImI9W9QiJgS-18" value="Успешная аутентификация" style="rounded=0;whiteSpace=wrap;html=1;fontSize=18;" vertex="1" parent="WIyWlLk6GJQsqaUBKTNV-1">
          <mxGeometry x="363.75" y="440" width="172.5" height="70" as="geometry" />
        </mxCell>
        <mxCell id="beK7n8UiSImI9W9QiJgS-25" value="Верные данные" style="rhombus;whiteSpace=wrap;html=1;fontSize=18;" vertex="1" parent="WIyWlLk6GJQsqaUBKTNV-1">
          <mxGeometry x="580" y="354" width="120" height="86" as="geometry" />
        </mxCell>
        <mxCell id="beK7n8UiSImI9W9QiJgS-26" value="" style="ellipse;html=1;shape=endState;fillColor=strokeColor;" vertex="1" parent="WIyWlLk6GJQsqaUBKTNV-1">
          <mxGeometry x="435" y="540" width="30" height="30" as="geometry" />
        </mxCell>
      </root>
    </mxGraphModel>
  </diagram>
</mxfile>
